<svg width="420" height="512" viewBox="0 0 420 512" fill="none" xmlns="http://www.w3.org/2000/svg">
<path d="M388.601 420.37C402.573 378.653 410.379 324.584 410.142 270.332C409.888 212.369 400.464 160.423 383.486 122.618C388.063 119.586 391.91 115.532 394.729 110.656C399.505 102.397 400.763 92.7869 398.272 83.5954C393.113 64.5675 373.268 53.2091 354.02 58.2768C347.463 60.0087 340.912 61.6056 334.363 63.0935C299.232 22.3588 255.279 0 210.001 0C164.724 0 120.769 22.3588 85.6379 63.0945C79.0862 61.6066 72.5336 60.0087 65.9729 58.2758C46.734 53.2071 26.8871 64.5675 21.7284 83.5964C19.2365 92.7879 20.4954 102.398 25.2712 110.657C28.091 115.535 31.9408 119.59 36.5195 122.622C19.7145 160.152 10.372 212.065 10.093 270.258C9.832 324.841 17.5536 378.927 31.4018 420.368C8.0201 434.807 -4.38122 462.624 1.46246 489.792C1.91043 491.875 3.01037 493.759 4.60428 495.172C26.0511 514.188 57.2454 517.411 82.228 503.191C92.8475 497.148 101.512 488.352 107.339 477.86C136.513 489.792 172.523 496.299 210 496.299C247.477 496.299 283.487 489.793 312.661 477.861C318.487 488.354 327.153 497.149 337.771 503.192C348.16 509.105 359.619 512.002 371.008 512.002C387.008 512.001 402.867 506.282 415.395 495.174C416.989 493.761 418.089 491.876 418.537 489.794C424.381 462.628 411.979 434.812 388.601 420.37V420.37ZM210.001 19.9989C246.203 19.9989 281.767 36.848 311.578 67.7763C278.213 73.914 244.665 76.9358 210 76.9358C175.337 76.9358 141.79 73.914 108.424 67.7763C138.234 36.848 173.799 19.9989 210.001 19.9989ZM399.561 482.328C384.672 493.754 364.229 495.237 347.664 485.81C338.054 480.341 330.745 471.665 327.086 461.379C326.138 458.715 324.107 456.577 321.494 455.494C318.883 454.412 315.934 454.486 313.379 455.697C285.372 468.982 248.658 476.3 210 476.3C171.343 476.3 134.628 468.983 106.622 455.697C104.067 454.485 101.119 454.412 98.5062 455.494C95.8943 456.577 93.8624 458.715 92.9145 461.379C89.2537 471.665 81.9451 480.342 72.3356 485.811C55.7705 495.238 35.3266 493.753 20.4384 482.328C17.6916 462.43 28.763 442.628 47.6979 434.352C52.5537 432.23 54.9105 426.69 53.0726 421.72C24.6212 344.823 19.1445 208.266 55.3395 129.519C90.8486 138.398 127.463 144.257 164.304 146.938C169.809 147.344 174.602 143.199 175.003 137.69C175.404 132.183 171.264 127.392 165.755 126.991C127.379 124.198 89.2607 117.854 52.4557 108.133C48.2379 107.022 44.7311 104.363 42.5812 100.646C40.4933 97.0357 39.9414 92.8389 41.0283 88.8291C43.3222 80.3686 52.2257 75.3389 60.8692 77.6137C110.097 90.615 158.877 96.9357 209.997 96.9357C261.117 96.9357 309.898 90.616 359.118 77.6158C367.77 75.3369 376.673 80.3676 378.967 88.8291C380.054 92.8379 379.502 97.0347 377.414 100.645C375.264 104.362 371.757 107.021 367.532 108.134C330.732 117.854 292.613 124.198 254.232 126.991C248.724 127.392 244.583 132.182 244.984 137.689C245.367 142.951 249.754 146.964 254.947 146.964C255.19 146.964 255.436 146.955 255.683 146.937C292.53 144.255 329.149 138.397 364.657 129.518C400.858 208.25 395.38 344.809 366.924 421.719C365.087 426.689 367.443 432.229 372.298 434.351C391.236 442.628 402.308 462.431 399.561 482.328V482.328Z" fill="#E7D0B6"/>
<path d="M210 148.609C215.523 148.609 219.999 144.133 219.999 138.61C219.999 133.087 215.523 128.61 210 128.61H209.993C204.47 128.61 199.998 133.087 199.998 138.61C199.998 144.133 204.477 148.609 210 148.609Z" fill="#E7D0B6"/>
</svg>
