<svg width="488" height="488" viewBox="0 0 488 488" fill="none" xmlns="http://www.w3.org/2000/svg">
<path d="M414.277 -0.569172L413.979 -1H413.455H74.5449H74.0209L73.7227 -0.569172L-0.822219 107.117L-1 107.374V107.687V488V489H0H488H489V488V107.687V107.374L488.822 107.117L414.277 -0.569172ZM196.183 178.613L181.983 188.051V119.061H306.017V188.051L291.817 178.613L291.262 178.244L290.708 178.614L267.632 193.998L244.555 178.614L244 178.244L243.445 178.614L220.368 193.998L197.292 178.614L196.738 178.244L196.183 178.613ZM165.88 220.143L196.833 199.476L219.91 214.86L220.465 215.23L221.019 214.86L244.096 199.476L267.173 214.86L267.728 215.23L268.282 214.86L291.359 199.476L322.312 220.143L323.868 221.182V219.312V119.061H471.438V471.246H16.7543V119.061H164.324V219.312V221.182L165.88 220.143ZM323.676 16.7543H404.574L463.226 101.307H323.676V16.7543ZM182.079 16.7543H306.017V101.307H182.079V16.7543ZM24.772 101.307L83.3301 16.7543H164.228V101.307H24.772Z" fill="#E7D0B6" stroke="#E7D0B6" stroke-width="2"/>
</svg>
